<svg width="15" height="15" viewBox="0 0 15 15" fill="none" xmlns="http://www.w3.org/2000/svg">
<path d="M6.6944 6.05346L8.47565 4.27221C8.50637 4.24255 8.53088 4.20707 8.54774 4.16783C8.56461 4.1286 8.57348 4.0864 8.57386 4.04369C8.57424 4.00099 8.5661 3.95864 8.54993 3.91911C8.53377 3.87959 8.50989 3.84368 8.47969 3.81348C8.44949 3.78329 8.41358 3.75941 8.37406 3.74324C8.33453 3.72707 8.29218 3.71894 8.24948 3.71931C8.20677 3.71969 8.16457 3.72857 8.12534 3.74543C8.0861 3.76229 8.05062 3.7868 8.02096 3.81752L6.23971 5.59877C6.17942 5.65904 6.14553 5.74079 6.14551 5.82603C6.14549 5.91128 6.17933 5.99305 6.23959 6.05334C6.29986 6.11364 6.38161 6.14752 6.46685 6.14755C6.5521 6.14757 6.63387 6.11372 6.69416 6.05346H6.6944Z" fill="#FFA800"/>
<path d="M9.60258 5.78904C9.68017 5.78913 9.75604 5.7662 9.8206 5.72315C9.88515 5.6801 9.93548 5.61887 9.96522 5.5472C9.99495 5.47553 10.0028 5.39665 9.98764 5.32055C9.97253 5.24444 9.93517 5.17453 9.88031 5.11967C9.82544 5.0648 9.75553 5.02745 9.67943 5.01233C9.60332 4.99722 9.52444 5.00502 9.45278 5.03476C9.38111 5.0645 9.31987 5.11483 9.27683 5.17938C9.23378 5.24393 9.21085 5.31981 9.21094 5.3974C9.21106 5.50123 9.25236 5.60077 9.32578 5.67419C9.3992 5.74761 9.49875 5.78891 9.60258 5.78904Z" fill="#FFA800"/>
<path d="M14.6784 6.69985H14.5484C14.5173 6.69976 14.487 6.6905 14.4613 6.67323C14.4355 6.65595 14.4154 6.63145 14.4035 6.60278C14.3916 6.57412 14.3885 6.54259 14.3945 6.51215C14.4005 6.48171 14.4154 6.45373 14.4373 6.43173L14.906 5.96298C14.9359 5.93315 14.9596 5.89773 14.9757 5.85874C14.9919 5.81975 15.0002 5.77796 15.0002 5.73575C15.0002 5.69354 14.9919 5.65174 14.9757 5.61276C14.9596 5.57377 14.9359 5.53835 14.906 5.50852L14.2123 4.81524C14.1599 4.76273 14.0909 4.72997 14.0171 4.72249C13.9433 4.71501 13.8691 4.73329 13.8073 4.77423C13.6647 4.86842 13.4975 4.91847 13.3266 4.91813C13.1132 4.9159 12.9075 4.83855 12.7456 4.69967C12.5836 4.56078 12.4758 4.36926 12.4411 4.15876C12.425 4.05435 12.4303 3.94777 12.4566 3.84546C12.4828 3.74314 12.5295 3.6472 12.5939 3.56344C12.6352 3.50146 12.6539 3.4271 12.6467 3.35294C12.6394 3.27879 12.6068 3.20941 12.5543 3.15657L11.8434 2.44594C11.7911 2.39341 11.7221 2.36064 11.6483 2.35321C11.5745 2.34577 11.5005 2.36413 11.4387 2.40516C11.2959 2.4996 11.1284 2.54982 10.9573 2.54954C10.7443 2.5476 10.5389 2.47044 10.3773 2.3317C10.2157 2.19296 10.1083 2.00157 10.0741 1.79134C10.0585 1.68637 10.064 1.57935 10.0901 1.4765C10.1163 1.37365 10.1626 1.27704 10.2265 1.19227C10.2671 1.13043 10.2851 1.0565 10.2776 0.982918C10.2701 0.909335 10.2375 0.84058 10.1852 0.78821L9.49219 0.0937571C9.46234 0.0638799 9.4269 0.040178 9.3879 0.0240067C9.34889 0.00783535 9.30707 -0.000488281 9.26484 -0.000488281C9.22261 -0.000488281 9.1808 0.00783535 9.14179 0.0240067C9.10278 0.040178 9.06734 0.0638799 9.0375 0.0937571L2.47687 6.65391C2.46237 6.66867 2.44508 6.68041 2.42601 6.68846C2.40695 6.6965 2.38648 6.70069 2.36578 6.70079H0.321562C0.236441 6.70079 0.154792 6.73454 0.0945143 6.79464C0.0342365 6.85474 0.000248168 6.93629 0 7.02141V8.00251C0.000417748 8.07708 0.0265885 8.14921 0.0740824 8.2067C0.121576 8.26418 0.187475 8.3035 0.260625 8.31798C0.410885 8.35093 0.550048 8.42224 0.664558 8.52496C0.779067 8.62768 0.865019 8.7583 0.91404 8.90412C0.96306 9.04993 0.973478 9.20595 0.944279 9.35698C0.915079 9.50802 0.847258 9.64891 0.747422 9.76594C0.620977 9.91136 0.446121 10.006 0.255234 10.0324C0.183136 10.0478 0.118491 10.0875 0.0720549 10.1448C0.0256184 10.202 0.000189893 10.2735 0 10.3472L0 11.3524C0.000417748 11.427 0.0265885 11.4991 0.0740824 11.5566C0.121576 11.6141 0.187475 11.6534 0.260625 11.6679C0.410908 11.7009 0.550088 11.7722 0.664604 11.8749C0.77912 11.9777 0.865066 12.1084 0.914066 12.2542C0.963066 12.4 0.973449 12.5561 0.944203 12.7071C0.914958 12.8582 0.847081 12.9991 0.747187 13.1161C0.620898 13.2615 0.446221 13.3563 0.255469 13.3828C0.183406 13.3982 0.118767 13.4377 0.0722929 13.4949C0.0258189 13.5521 0.000308296 13.6234 0 13.6971L0 14.6784C0 14.7637 0.0338788 14.8455 0.0941835 14.9058C0.154488 14.9661 0.236279 15 0.321562 15H14.6784C14.7637 15 14.8455 14.9661 14.9058 14.9058C14.9661 14.8455 15 14.7637 15 14.6784V13.6971C14.9996 13.6223 14.9733 13.55 14.9256 13.4924C14.8779 13.4347 14.8118 13.3954 14.7384 13.3809C14.5884 13.3478 14.4494 13.2764 14.3351 13.1736C14.2208 13.0709 14.1351 12.9403 14.0862 12.7946C14.0373 12.6489 14.0269 12.493 14.0561 12.3421C14.0853 12.1912 14.1531 12.0504 14.2528 11.9334C14.3792 11.7879 14.5541 11.6932 14.745 11.6667C14.817 11.6513 14.8815 11.6117 14.9279 11.5545C14.9743 11.4973 14.9997 11.426 15 11.3524V10.3472C14.9995 10.2724 14.9732 10.2002 14.9255 10.1426C14.8779 10.085 14.8118 10.0457 14.7384 10.0313C14.5884 9.99811 14.4494 9.92668 14.3351 9.82393C14.2208 9.72117 14.1351 9.59059 14.0862 9.44488C14.0373 9.29916 14.0269 9.14328 14.0561 8.99238C14.0853 8.84149 14.1531 8.70071 14.2528 8.58376C14.3793 8.43827 14.5541 8.34344 14.745 8.3168C14.817 8.30147 14.8816 8.26191 14.928 8.20472C14.9744 8.14753 14.9998 8.07616 15 8.00251V7.02141C14.9998 6.93621 14.9658 6.85456 14.9055 6.79431C14.8453 6.73406 14.7636 6.7001 14.6784 6.69985ZM3.60937 6.43173L9.15328 0.887116C9.16786 0.872518 9.18518 0.860937 9.20424 0.853036C9.22331 0.845134 9.24374 0.841067 9.26437 0.841067C9.28501 0.841067 9.30544 0.845134 9.3245 0.853036C9.34357 0.860937 9.36088 0.872518 9.37547 0.887116C9.43078 0.957429 9.57445 1.02915 9.52641 1.16485C9.44488 1.39407 9.41966 1.63953 9.45285 1.88054C9.48605 2.12155 9.57669 2.35105 9.71714 2.54969C9.85759 2.74834 10.0437 2.91032 10.2599 3.02197C10.476 3.13363 10.7159 3.19168 10.9591 3.19126C11.4171 3.19126 11.5036 3.01524 11.6299 3.14134C11.7809 3.31829 11.9473 3.38673 11.8952 3.53344C11.8138 3.76266 11.7886 4.00808 11.8217 4.24906C11.8549 4.49004 11.9454 4.71954 12.0857 4.91824C12.2261 5.11695 12.412 5.27904 12.6281 5.3909C12.8441 5.50276 13.0838 5.5611 13.327 5.56102C13.7803 5.56102 13.872 5.38454 13.998 5.51016C14.0412 5.55938 14.2559 5.70329 14.1129 5.84649L13.639 6.3211L13.4062 6.55383C13.3599 6.60015 13.3049 6.63689 13.2444 6.66195C13.1839 6.687 13.119 6.69988 13.0535 6.69985H3.7193C3.68837 6.69953 3.65823 6.6901 3.63263 6.67274C3.60704 6.65538 3.58713 6.63086 3.5754 6.60225C3.56367 6.57363 3.56064 6.5422 3.56668 6.51187C3.57272 6.48153 3.58757 6.45366 3.60937 6.43173ZM14.3569 7.66173C14.3569 7.68943 14.3496 7.71666 14.3357 7.74062C14.3218 7.76458 14.3017 7.78442 14.2777 7.79813C14.0978 7.88243 13.9344 7.99806 13.7951 8.13962C13.6355 8.31589 13.5191 8.52694 13.4553 8.75602C13.3915 8.9851 13.382 9.2259 13.4275 9.4593C13.473 9.69271 13.5723 9.9123 13.7174 10.1006C13.8626 10.289 14.0497 10.4409 14.2638 10.5443C14.2915 10.5569 14.315 10.5772 14.3316 10.6026C14.3482 10.6281 14.3572 10.6578 14.3576 10.6882V10.9793C14.3616 11.0147 14.3548 11.0506 14.3381 11.0821C14.3214 11.1136 14.2955 11.1393 14.2638 11.1558C14.0497 11.2592 13.8626 11.4111 13.7174 11.5994C13.5723 11.7877 13.473 12.0073 13.4275 12.2407C13.382 12.4741 13.3915 12.7148 13.4553 12.9439C13.5191 13.173 13.6355 13.384 13.7951 13.5602C13.9345 13.7018 14.098 13.8175 14.2779 13.9017C14.302 13.9155 14.322 13.9354 14.3359 13.9594C14.3498 13.9834 14.3571 14.0106 14.3571 14.0384C14.3473 14.0829 14.4108 14.3571 14.2001 14.3571H0.799922C0.583359 14.3571 0.654844 14.0916 0.643125 14.0384C0.64313 14.0106 0.650458 13.9834 0.664368 13.9594C0.678279 13.9354 0.698278 13.9155 0.722344 13.9017C0.902283 13.8174 1.06577 13.7017 1.20516 13.56C1.36468 13.3837 1.48092 13.1727 1.54468 12.9437C1.60843 12.7147 1.61794 12.4739 1.57245 12.2406C1.52695 12.0073 1.42771 11.7877 1.28259 11.5994C1.13746 11.4111 0.95046 11.2592 0.736406 11.1558C0.708757 11.1431 0.685267 11.1229 0.66867 11.0974C0.652074 11.0719 0.643052 11.0423 0.642656 11.0119V10.7206C0.638564 10.6851 0.645339 10.6493 0.662083 10.6178C0.678827 10.5864 0.704748 10.5607 0.736406 10.5443C0.950464 10.4408 1.13747 10.2889 1.28259 10.1006C1.42771 9.91228 1.52695 9.69273 1.57244 9.45937C1.61794 9.22602 1.60843 8.98527 1.54468 8.75622C1.48092 8.52718 1.36468 8.31614 1.20516 8.13985C1.06577 7.9982 0.902283 7.88249 0.722344 7.79813C0.698264 7.78442 0.678248 7.76458 0.664332 7.74062C0.650417 7.71666 0.643099 7.68943 0.643125 7.66173C0.652969 7.61673 0.589453 7.34298 0.799922 7.34298H14.1998C14.4166 7.34298 14.3452 7.60852 14.3569 7.66173Z" fill="#FFA800"/>
<path d="M3.64198 9.25782H11.3578C11.4008 9.25898 11.4435 9.25152 11.4835 9.23589C11.5236 9.22026 11.56 9.19676 11.5908 9.1668C11.6216 9.13684 11.6461 9.10101 11.6628 9.06143C11.6795 9.02185 11.6881 8.97933 11.6881 8.93637C11.6881 8.89341 11.6795 8.85089 11.6628 8.81131C11.6461 8.77173 11.6216 8.73591 11.5908 8.70594C11.56 8.67598 11.5236 8.65249 11.4835 8.63685C11.4435 8.62122 11.4008 8.61376 11.3578 8.61492H3.64198C3.55823 8.61719 3.47867 8.65205 3.42024 8.71208C3.3618 8.77212 3.3291 8.85259 3.3291 8.93637C3.3291 9.02015 3.3618 9.10062 3.42024 9.16066C3.47867 9.2207 3.55823 9.25556 3.64198 9.25782Z" fill="#FFA800"/>
<path d="M11.3577 12.4427H3.64187C3.55659 12.4427 3.4748 12.4766 3.4145 12.5369C3.35419 12.5972 3.32031 12.679 3.32031 12.7643C3.32031 12.8496 3.35419 12.9314 3.4145 12.9917C3.4748 13.052 3.55659 13.0859 3.64187 13.0859H11.3577C11.443 13.0859 11.5248 13.052 11.5851 12.9917C11.6454 12.9314 11.6793 12.8496 11.6793 12.7643C11.6793 12.679 11.6454 12.5972 11.5851 12.5369C11.5248 12.4766 11.443 12.4427 11.3577 12.4427Z" fill="#FFA800"/>
<path d="M3.64211 11.242C3.71966 11.242 3.79547 11.219 3.85995 11.176C3.92443 11.1329 3.97469 11.0716 4.00437 11C4.03404 10.9283 4.04181 10.8495 4.02668 10.7734C4.01155 10.6974 3.97421 10.6275 3.91937 10.5727C3.86453 10.5178 3.79466 10.4805 3.7186 10.4654C3.64254 10.4502 3.5637 10.458 3.49205 10.4877C3.42041 10.5174 3.35917 10.5676 3.31608 10.6321C3.273 10.6966 3.25 10.7724 3.25 10.8499C3.25 10.9539 3.29131 11.0537 3.36485 11.1272C3.43838 11.2007 3.53811 11.242 3.64211 11.242Z" fill="#FFA800"/>
<path d="M4.53613 10.8499C4.53609 10.9275 4.55905 11.0034 4.60212 11.0679C4.64519 11.1324 4.70642 11.1827 4.77808 11.2124C4.84974 11.2421 4.9286 11.2499 5.00468 11.2348C5.08076 11.2197 5.15065 11.1823 5.2055 11.1274C5.26036 11.0726 5.29771 11.0027 5.31283 10.9266C5.32795 10.8505 5.32017 10.7717 5.29046 10.7C5.26075 10.6284 5.21046 10.5671 5.14594 10.5241C5.08142 10.481 5.00558 10.458 4.92801 10.4581C4.82409 10.4581 4.72446 10.4994 4.65098 10.5729C4.5775 10.6464 4.53619 10.746 4.53613 10.8499Z" fill="#FFA800"/>
<path d="M5.82227 10.8499C5.82222 10.9275 5.84518 11.0034 5.88825 11.0679C5.93132 11.1324 5.99256 11.1827 6.06421 11.2124C6.13587 11.2421 6.21473 11.2499 6.29082 11.2348C6.3669 11.2197 6.43679 11.1823 6.49164 11.1274C6.54649 11.0726 6.58384 11.0027 6.59896 10.9266C6.61409 10.8505 6.6063 10.7717 6.57659 10.7C6.54689 10.6284 6.49659 10.5671 6.43207 10.5241C6.36756 10.481 6.29171 10.458 6.21414 10.4581C6.11021 10.4581 6.01053 10.4994 5.93704 10.5728C5.86355 10.6463 5.82227 10.746 5.82227 10.8499Z" fill="#FFA800"/>
<path d="M7.10791 10.8499C7.10786 10.9275 7.13082 11.0033 7.17388 11.0679C7.21694 11.1324 7.27816 11.1827 7.34981 11.2124C7.42145 11.2421 7.5003 11.2499 7.57638 11.2348C7.65245 11.2197 7.72234 11.1824 7.7772 11.1275C7.83207 11.0727 7.86943 11.0028 7.88458 10.9268C7.89973 10.8507 7.89198 10.7718 7.86231 10.7002C7.83264 10.6285 7.78238 10.5673 7.71789 10.5242C7.6534 10.4811 7.57758 10.4581 7.50002 10.4581C7.39607 10.4581 7.29637 10.4993 7.22284 10.5728C7.14931 10.6463 7.10797 10.746 7.10791 10.8499Z" fill="#FFA800"/>
<path d="M8.39404 10.8499C8.394 10.9275 8.41695 11.0033 8.46001 11.0679C8.50307 11.1324 8.56429 11.1827 8.63594 11.2124C8.70758 11.2421 8.78643 11.2499 8.86251 11.2348C8.93859 11.2197 9.00848 11.1824 9.06334 11.1275C9.1182 11.0727 9.15557 11.0028 9.17072 10.9268C9.18586 10.8507 9.17811 10.7718 9.14844 10.7002C9.11877 10.6285 9.06851 10.5673 9.00403 10.5242C8.93954 10.4811 8.86372 10.4581 8.78616 10.4581C8.6822 10.4581 8.5825 10.4993 8.50897 10.5728C8.43544 10.6463 8.39411 10.746 8.39404 10.8499Z" fill="#FFA800"/>
<path d="M9.67969 10.8499C9.67964 10.9275 9.7026 11.0033 9.74566 11.0679C9.78871 11.1324 9.84994 11.1827 9.92158 11.2124C9.99323 11.2421 10.0721 11.2499 10.1482 11.2348C10.2242 11.2197 10.2941 11.1824 10.349 11.1275C10.4038 11.0727 10.4412 11.0028 10.4564 10.9268C10.4715 10.8507 10.4638 10.7718 10.4341 10.7002C10.4044 10.6285 10.3542 10.5673 10.2897 10.5242C10.2252 10.4811 10.1494 10.4581 10.0718 10.4581C9.96785 10.4581 9.86815 10.4993 9.79462 10.5728C9.72109 10.6463 9.67975 10.746 9.67969 10.8499Z" fill="#FFA800"/>
<path d="M11.3582 10.4581C11.2806 10.458 11.2047 10.481 11.1402 10.5241C11.0757 10.5671 11.0254 10.6284 10.9957 10.7C10.966 10.7717 10.9582 10.8505 10.9733 10.9266C10.9885 11.0027 11.0258 11.0726 11.0807 11.1274C11.1355 11.1823 11.2054 11.2197 11.2815 11.2348C11.3576 11.2499 11.4364 11.2421 11.5081 11.2124C11.5797 11.1827 11.641 11.1324 11.6841 11.0679C11.7271 11.0034 11.7501 10.9275 11.75 10.8499C11.75 10.746 11.7087 10.6463 11.6353 10.5728C11.5618 10.4994 11.4621 10.4581 11.3582 10.4581Z" fill="#FFA800"/>
</svg>
