<svg width="15" height="15" viewBox="0 0 15 15" fill="none" xmlns="http://www.w3.org/2000/svg">
<path d="M11.8955 7.36682H13.0582C13.3211 7.36682 13.535 7.17437 13.535 6.93782V5.89151C13.535 5.65497 13.3211 5.46252 13.0582 5.46252H11.8955C11.6327 5.46252 11.4188 5.65497 11.4188 5.89151V6.93782C11.4188 7.17437 11.6327 7.36682 11.8955 7.36682ZM11.9072 5.90197H13.0466V6.92736H11.9072V5.90197ZM11.8955 10.15H13.0582C13.3211 10.15 13.535 9.95757 13.535 9.72103V8.67472C13.535 8.43817 13.3211 8.24572 13.0582 8.24572H11.8955C11.6327 8.24572 11.4188 8.43817 11.4188 8.67472V9.72103C11.4188 9.95757 11.6327 10.15 11.8955 10.15ZM11.9072 8.68518H13.0466V9.71057H11.9072V8.68518ZM8.5776 7.36682H9.74029C10.0031 7.36682 10.217 7.17437 10.217 6.93782V5.89151C10.217 5.65497 10.0031 5.46252 9.74029 5.46252H8.5776C8.31474 5.46252 8.10088 5.65497 8.10088 5.89151V6.93782C8.10088 7.17437 8.31474 7.36682 8.5776 7.36682ZM8.58922 5.90197H9.72867V6.92736H8.58922V5.90197ZM3.10439 10.8984H1.94169C1.67884 10.8984 1.46498 11.0909 1.46498 11.3274V12.3737C1.46498 12.6103 1.67884 12.8027 1.94169 12.8027H3.10439C3.36724 12.8027 3.5811 12.6103 3.5811 12.3737V11.3274C3.5811 11.0909 3.36724 10.8984 3.10439 10.8984ZM3.09276 12.3633H1.95331V11.3379H3.09276V12.3633ZM3.10439 5.46252H1.94169C1.67884 5.46252 1.46498 5.65497 1.46498 5.89151V6.93782C1.46498 7.17437 1.67884 7.36682 1.94169 7.36682H3.10439C3.36724 7.36682 3.5811 7.17437 3.5811 6.93782V5.89151C3.5811 5.65494 3.36724 5.46252 3.10439 5.46252ZM3.09276 6.92736H1.95331V5.90197H3.09276V6.92736ZM8.5776 10.0848H9.74029C10.0031 10.0848 10.217 9.89232 10.217 9.65578V8.60947C10.217 8.37293 10.0031 8.18048 9.74029 8.18048H8.5776C8.31474 8.18048 8.10088 8.37293 8.10088 8.60947V9.65578C8.10088 9.89232 8.31474 10.0848 8.5776 10.0848ZM8.58922 8.61993H9.72867V9.64532H8.58922V8.61993ZM13.7775 1.00412H12.7335V0.668174C12.7335 0.299736 12.4005 0 11.991 0H11.8789C11.4695 0 11.1364 0.299736 11.1364 0.668174V1.00412H3.86349V0.668174C3.86349 0.299736 3.53041 0 3.12099 0H3.00887C2.59945 0 2.26637 0.299736 2.26637 0.668174V1.00412H1.22247C0.548402 1.00412 0 1.49763 0 2.10422V13.9014C0 14.5072 0.547653 15 1.22084 15H13.7792C14.4523 15 15 14.5072 15 13.9014V2.10422C15 1.49763 14.4516 1.00412 13.7775 1.00412ZM11.6248 0.668174C11.6248 0.542051 11.7388 0.439453 11.8789 0.439453H11.9911C12.1312 0.439453 12.2452 0.542051 12.2452 0.668174V1.00412H11.6248V0.668174ZM2.75474 0.668174C2.75474 0.542051 2.86875 0.439453 3.0089 0.439453H3.12102C3.26118 0.439453 3.37519 0.542051 3.37519 0.668174V1.00412H2.75477V0.668174H2.75474ZM14.5116 13.9014C14.5116 14.2649 14.183 14.5605 13.7791 14.5605H1.22081C0.816889 14.5605 0.488304 14.2649 0.488304 13.9014V13.9C0.692884 14.0387 0.947177 14.1211 1.22247 14.1211H11.1221C11.4487 14.1211 11.7557 14.0067 11.9865 13.7989L14.5116 11.5265V13.9014ZM11.7374 13.4016C11.7565 13.3305 11.767 13.2563 11.767 13.18V11.7133C11.767 11.4367 12.017 11.2117 12.3244 11.2117H13.9542C14.039 11.2117 14.1214 11.2023 14.2004 11.1851L11.7374 13.4016ZM14.5116 4.14416H4.10766C3.97281 4.14416 3.86349 4.24254 3.86349 4.36389C3.86349 4.48523 3.97281 4.58361 4.10766 4.58361H14.5116V10.2707C14.5116 10.5473 14.2616 10.7723 13.9542 10.7723H12.3244C11.7477 10.7723 11.2786 11.1945 11.2786 11.7133V13.18C11.2786 13.4566 11.0286 13.6817 10.7212 13.6817H1.22247C0.81767 13.6817 0.488336 13.3853 0.488336 13.021V4.58361H3.13099C3.26583 4.58361 3.37515 4.48523 3.37515 4.36389C3.37515 4.24254 3.26583 4.14416 3.13099 4.14416H0.488304V2.10422C0.488304 1.73994 0.817638 1.44357 1.22244 1.44357H2.26637V2.08963C2.26637 2.45807 2.59945 2.7578 3.00887 2.7578C3.14371 2.7578 3.25304 2.65942 3.25304 2.53808C3.25304 2.41673 3.14371 2.31835 3.00887 2.31835C2.86872 2.31835 2.75471 2.21575 2.75471 2.08963V1.44357H11.1364V2.08963C11.1364 2.45807 11.4695 2.7578 11.8789 2.7578C12.0138 2.7578 12.1231 2.65942 12.1231 2.53808C12.1231 2.41673 12.0138 2.31835 11.8789 2.31835C11.7388 2.31835 11.6248 2.21575 11.6248 2.08963V1.44357H13.7775C14.1823 1.44357 14.5116 1.73994 14.5116 2.10422V4.14416ZM3.10439 8.18048H1.94169C1.67884 8.18048 1.46498 8.37293 1.46498 8.60947V9.65578C1.46498 9.89232 1.67884 10.0848 1.94169 10.0848H3.10439C3.36724 10.0848 3.5811 9.89232 3.5811 9.65578V8.60947C3.5811 8.3729 3.36724 8.18048 3.10439 8.18048ZM3.09276 9.64532H1.95331V8.61993H3.09276V9.64532ZM5.25964 7.36682H6.42234C6.68519 7.36682 6.89905 7.17437 6.89905 6.93782V5.89151C6.89905 5.65497 6.68519 5.46252 6.42234 5.46252H5.25964C4.99679 5.46252 4.78293 5.65497 4.78293 5.89151V6.93782C4.78293 7.17437 4.99679 7.36682 5.25964 7.36682ZM5.27127 5.90197H6.41072V6.92736H5.27127V5.90197ZM8.58893 12.3633C8.58287 12.2468 8.47599 12.154 8.34502 12.154C8.21017 12.154 8.10085 12.2524 8.10085 12.3737C8.10085 12.6103 8.31471 12.8027 8.57756 12.8027H9.74026C10.0031 12.8027 10.217 12.6103 10.217 12.3737V11.3274C10.217 11.0909 10.0031 10.8984 9.74026 10.8984H8.57756C8.31471 10.8984 8.10085 11.0909 8.10085 11.3274V11.6292C8.10085 11.7505 8.21017 11.8489 8.34502 11.8489C8.47986 11.8489 8.58919 11.7505 8.58919 11.6292V11.3379H9.72864V12.3633H8.58893ZM5.25964 10.0848H6.42234C6.68519 10.0848 6.89905 9.89232 6.89905 9.65578V8.60947C6.89905 8.37293 6.68519 8.18048 6.42234 8.18048H5.25964C4.99679 8.18048 4.78293 8.37293 4.78293 8.60947V9.65578C4.78293 9.89232 4.99679 10.0848 5.25964 10.0848ZM5.27127 8.61993H6.41072V9.64532H5.27127V8.61993ZM5.25964 12.8027H6.42234C6.68519 12.8027 6.89905 12.6103 6.89905 12.3737V11.3274C6.89905 11.0909 6.68519 10.8984 6.42234 10.8984H5.25964C4.99679 10.8984 4.78293 11.0909 4.78293 11.3274V12.3737C4.78293 12.6103 4.99679 12.8027 5.25964 12.8027ZM5.27127 11.3379H6.41072V12.3633H5.27127V11.3379Z" fill="#FFA800"/>
</svg>
