<svg width="26" height="26" viewBox="0 0 26 26" fill="none" xmlns="http://www.w3.org/2000/svg">
<circle cx="13" cy="13" r="13" fill="white"/>
<path d="M14.2445 11.82C15.0179 12.18 15.6579 12.5267 16.1645 12.86C16.6845 13.18 17.1245 13.6 17.4845 14.12C17.8445 14.64 18.0245 15.2667 18.0245 16C18.0245 17.1067 17.6645 18 16.9445 18.68C16.2245 19.3467 15.1979 19.68 13.8645 19.68H13.8045V22.24C13.6712 22.3067 13.4779 22.34 13.2245 22.34C12.8645 22.34 12.5645 22.2867 12.3245 22.18V19.54C11.6845 19.4067 11.1045 19.24 10.5845 19.04L9.06453 19.68C8.8112 19.2 8.5912 18.5067 8.40453 17.6C8.21786 16.68 8.12453 15.8533 8.12453 15.12H10.2045C10.4979 16.04 10.9445 16.7667 11.5445 17.3C12.1579 17.8333 12.8645 18.1 13.6645 18.1C14.7979 18.1 15.3645 17.6867 15.3645 16.86C15.3645 16.3133 15.0645 15.7933 14.4645 15.3C13.8645 14.8067 13.1379 14.36 12.2845 13.96C11.0579 13.3733 10.1579 12.7867 9.58453 12.2C9.02453 11.6133 8.74453 10.8467 8.74453 9.9C8.74453 8.79333 9.0912 7.93333 9.78453 7.32C10.4912 6.69333 11.4045 6.36667 12.5245 6.34V4.08C12.6579 4.01333 12.8445 3.98 13.0845 3.98C13.4445 3.98 13.7445 4.04 13.9845 4.16V6.46C14.4512 6.54 14.8512 6.66 15.1845 6.82L17.2845 6.34C17.5245 6.72667 17.6779 7.25333 17.7445 7.92C17.8245 8.58667 17.8645 9.35333 17.8645 10.22V10.54H16.1045C15.8379 9.67333 15.4645 9.02 14.9845 8.58C14.5045 8.14 13.9579 7.92 13.3445 7.92C12.1579 7.92 11.5645 8.39333 11.5645 9.34C11.5645 9.87333 11.8045 10.3267 12.2845 10.7C12.7779 11.0733 13.4312 11.4467 14.2445 11.82Z" fill="#0B73EC"/>
</svg>
