<svg width="33" height="33" viewBox="0 0 33 33" fill="none" xmlns="http://www.w3.org/2000/svg">
<path d="M25.6581 27.0083H6.75227C6.39412 27.0083 6.05064 27.1506 5.79738 27.4038C5.54413 27.6571 5.40186 28.0006 5.40186 28.3587C5.40186 28.7169 5.54413 29.0604 5.79738 29.3136C6.05064 29.5669 6.39412 29.7091 6.75227 29.7091H25.6581C26.0163 29.7091 26.3597 29.5669 26.613 29.3136C26.8662 29.0604 27.0085 28.7169 27.0085 28.3587C27.0085 28.0006 26.8662 27.6571 26.613 27.4038C26.3597 27.1506 26.0163 27.0083 25.6581 27.0083Z" fill="white"/>
<path d="M6.75209 24.3075H6.87363L12.5049 23.7943C13.1217 23.7329 13.6987 23.4611 14.1389 23.0246L26.2926 10.8708C26.7643 10.3725 27.0193 9.70745 27.0015 9.02148C26.9838 8.33551 26.6949 7.68453 26.1981 7.2112L22.4979 3.51106C22.015 3.05745 21.3822 2.79717 20.7199 2.77974C20.0576 2.76231 19.4119 2.98895 18.9058 3.41653L6.75209 15.5703C6.31559 16.0105 6.0438 16.5874 5.98235 17.2043L5.40167 22.8355C5.38348 23.0333 5.40915 23.2327 5.47684 23.4194C5.54453 23.6062 5.65258 23.7757 5.79329 23.9158C5.91948 24.041 6.06912 24.14 6.23365 24.2072C6.39819 24.2744 6.57436 24.3085 6.75209 24.3075ZM20.6209 5.40164L24.3075 9.08828L21.6067 11.7216L17.9875 8.10247L20.6209 5.40164Z" fill="white"/>
</svg>
