<svg width="33" height="33" viewBox="0 0 33 33" fill="none" xmlns="http://www.w3.org/2000/svg">
<path d="M26.6569 9.89864L20.6611 3.14656C20.5348 3.00667 20.3807 2.89475 20.2086 2.818C20.0365 2.74125 19.8502 2.70137 19.6618 2.70093H8.85843C8.40976 2.69557 7.96442 2.77866 7.54785 2.94543C7.13129 3.1122 6.75165 3.35939 6.43063 3.67289C6.10961 3.98639 5.85348 4.36006 5.67688 4.77255C5.50027 5.18505 5.40666 5.62829 5.40137 6.07697V26.3332C5.40666 26.7819 5.50027 27.2251 5.67688 27.6376C5.85348 28.0501 6.10961 28.4238 6.43063 28.7373C6.75165 29.0508 7.13129 29.298 7.54785 29.4647C7.96442 29.6315 8.40976 29.7146 8.85843 29.7092H23.551C23.9996 29.7146 24.445 29.6315 24.8615 29.4647C25.2781 29.298 25.6577 29.0508 25.9788 28.7373C26.2998 28.4238 26.5559 28.0501 26.7325 27.6376C26.9091 27.2251 27.0027 26.7819 27.008 26.3332V10.8034C27.0072 10.4687 26.882 10.1463 26.6569 9.89864ZM12.1534 16.2051H16.2047C16.5628 16.2051 16.9063 16.3474 17.1596 16.6006C17.4128 16.8539 17.5551 17.1974 17.5551 17.5555C17.5551 17.9137 17.4128 18.2571 17.1596 18.5104C16.9063 18.7636 16.5628 18.9059 16.2047 18.9059H12.1534C11.7953 18.9059 11.4518 18.7636 11.1986 18.5104C10.9453 18.2571 10.803 17.9137 10.803 17.5555C10.803 17.1974 10.9453 16.8539 11.1986 16.6006C11.4518 16.3474 11.7953 16.2051 12.1534 16.2051ZM20.2559 24.3076H12.1534C11.7953 24.3076 11.4518 24.1653 11.1986 23.9121C10.9453 23.6588 10.803 23.3153 10.803 22.9572C10.803 22.599 10.9453 22.2555 11.1986 22.0023C11.4518 21.749 11.7953 21.6068 12.1534 21.6068H20.2559C20.6141 21.6068 20.9576 21.749 21.2108 22.0023C21.4641 22.2555 21.6064 22.599 21.6064 22.9572C21.6064 23.3153 21.4641 23.6588 21.2108 23.9121C20.9576 24.1653 20.6141 24.3076 20.2559 24.3076ZM19.8643 10.8034C19.5859 10.776 19.3294 10.6403 19.1501 10.4256C18.9708 10.2109 18.8829 9.9344 18.9055 9.65557V5.40176L23.9561 10.8034H19.8643Z" fill="white"/>
</svg>
