<svg width="21" height="21" viewBox="0 0 21 21" fill="none" xmlns="http://www.w3.org/2000/svg">
<g clip-path="url(#clip0_116_328)">
<path d="M0 10.5C0 7.71523 1.10625 5.04451 3.07538 3.07538C5.04451 1.10625 7.71523 0 10.5 0C13.2848 0 15.9555 1.10625 17.9246 3.07538C19.8938 5.04451 21 7.71523 21 10.5C21 13.2848 19.8938 15.9555 17.9246 17.9246C15.9555 19.8938 13.2848 21 10.5 21C7.71523 21 5.04451 19.8938 3.07538 17.9246C1.10625 15.9555 0 13.2848 0 10.5ZM9.84375 1.41356C8.96437 1.68131 8.09156 2.48981 7.36706 3.84825C7.17937 4.2 7.00481 4.58325 6.84862 4.99275C7.77394 5.19881 8.78063 5.33006 9.84375 5.36944V1.41356ZM5.57681 4.64494C5.76319 4.14094 5.97581 3.66844 6.20813 3.23006C6.43507 2.80095 6.69715 2.39136 6.99169 2.0055C5.87431 2.46855 4.8592 3.14737 4.00444 4.00312C4.47956 4.24463 5.00588 4.45988 5.57681 4.64494ZM4.60556 9.84375C4.65281 8.43937 4.85231 7.10456 5.17781 5.89575C4.46735 5.66855 3.77968 5.37546 3.12375 5.02031C2.0784 6.42384 1.45795 8.09796 1.33613 9.84375H4.60425H4.60556ZM6.44306 6.24619C6.13364 7.42188 5.95753 8.62866 5.91806 9.84375H9.84375V6.68194C8.64937 6.64256 7.50356 6.49162 6.44306 6.24619ZM11.1562 6.68062V9.84375H15.0806C15.0416 8.62871 14.8659 7.42193 14.5569 6.24619C13.4964 6.49162 12.3506 6.63994 11.1562 6.68062ZM5.91938 11.1562C5.96531 12.4517 6.15037 13.6684 6.44306 14.7538C7.56008 14.5003 8.69888 14.3548 9.84375 14.3194V11.1562H5.91938ZM11.1562 11.1562V14.3181C12.3506 14.3574 13.4964 14.5084 14.5569 14.7538C14.8496 13.6684 15.0347 12.4517 15.0819 11.1562H11.1562ZM6.84862 16.0072C7.00612 16.4167 7.17937 16.8 7.36706 17.1518C8.09156 18.5102 8.96569 19.3174 9.84375 19.5864V15.6319C8.78063 15.6712 7.77394 15.8012 6.84862 16.0072ZM6.993 18.9945C6.69799 18.6087 6.43546 18.1991 6.20813 17.7699C5.96639 17.3125 5.75548 16.8393 5.57681 16.3538C5.03689 16.5273 4.5112 16.7423 4.00444 16.9969C4.8592 17.8526 5.87563 18.5315 6.993 18.9945ZM5.17781 15.1043C4.83706 13.8144 4.64462 12.4898 4.60425 11.1562H1.33613C1.45788 12.9021 2.07834 14.5762 3.12375 15.9797C3.74063 15.6411 4.42969 15.3471 5.17781 15.1043ZM14.0083 18.9945C15.1251 18.5317 16.1398 17.8534 16.9942 16.9982C16.4879 16.7436 15.9627 16.5286 15.4232 16.3551C15.2445 16.8402 15.0336 17.3129 14.7919 17.7699C14.565 18.1991 14.3029 18.6087 14.0083 18.9945ZM11.1562 15.6306V19.5864C12.0356 19.3187 12.9084 18.5102 13.6329 17.1518C13.8206 16.8 13.9952 16.4167 14.1514 16.0072C13.1665 15.7913 12.164 15.6643 11.1562 15.6306ZM15.8222 15.1043C16.5703 15.3471 17.2594 15.6411 17.8762 15.9797C18.9217 14.5762 19.5421 12.9021 19.6639 11.1562H16.3958C16.3554 12.4898 16.1629 13.8144 15.8222 15.1043ZM19.6639 9.84375C19.5421 8.09794 18.9217 6.4238 17.8762 5.02031C17.2594 5.35894 16.5703 5.65294 15.8222 5.89575C16.1477 7.10325 16.3472 8.43937 16.3958 9.84375H19.6639ZM14.7919 3.23006C15.0242 3.66844 15.2368 4.14094 15.4245 4.64494C15.9635 4.47135 16.4884 4.25634 16.9942 4.00181C16.1396 3.14714 15.125 2.46923 14.0083 2.00681C14.2944 2.37825 14.5569 2.79037 14.7919 3.23006ZM14.1514 4.99275C14.0023 4.60095 13.8291 4.21872 13.6329 3.84825C12.9084 2.48981 12.0356 1.68263 11.1562 1.41356V5.36812C12.2194 5.32875 13.2261 5.19881 14.1514 4.99275Z" fill="#0B73EC"/>
</g>
<defs>
<clipPath id="clip0_116_328">
<rect width="21" height="21" fill="white"/>
</clipPath>
</defs>
</svg>
