<svg width="35" height="35" viewBox="0 0 35 35" fill="none" xmlns="http://www.w3.org/2000/svg">
<path d="M29.4133 14.6534L18.3153 3.3107C18.1815 3.17578 18.0223 3.0687 17.8469 2.99562C17.6715 2.92254 17.4834 2.88492 17.2934 2.88492C17.1033 2.88492 16.9152 2.92254 16.7398 2.99562C16.5644 3.0687 16.4052 3.17578 16.2714 3.3107L5.17341 14.6677C4.90487 14.9385 4.69278 15.2598 4.54946 15.6132C4.40614 15.9665 4.33445 16.3448 4.33854 16.7261V28.7885C4.33743 29.5253 4.61891 30.2346 5.12501 30.7701C5.63111 31.3057 6.32331 31.6268 7.05905 31.6673H27.5277C28.2634 31.6268 28.9556 31.3057 29.4617 30.7701C29.9678 30.2346 30.2493 29.5253 30.2482 28.7885V16.7261C30.2493 15.9531 29.9499 15.2098 29.4133 14.6534ZM14.4145 28.7885V20.1519H20.1722V28.7885H14.4145ZM27.3693 28.7885H23.051V18.7125C23.051 18.3308 22.8994 17.9646 22.6294 17.6947C22.3595 17.4248 21.9934 17.2731 21.6116 17.2731H12.9751C12.5933 17.2731 12.2272 17.4248 11.9573 17.6947C11.6873 17.9646 11.5357 18.3308 11.5357 18.7125V28.7885H7.21739V16.6685L17.2934 6.37667L27.3693 16.7261V28.7885Z" fill="white"/>
</svg>
