<svg width="36" height="35" viewBox="0 0 36 35" fill="none" xmlns="http://www.w3.org/2000/svg">
<path d="M21.7404 31.9978H21.6441C21.2908 31.9765 20.9545 31.8387 20.6874 31.606C20.4204 31.3732 20.2375 31.0585 20.1674 30.7109L17.4547 17.5196L4.29246 14.8009C3.9449 14.7317 3.62995 14.5492 3.39672 14.2818C3.16349 14.0145 3.02508 13.6773 3.00309 13.3228C2.98111 12.9684 3.07676 12.6166 3.27515 12.3224C3.47354 12.0281 3.76351 11.8079 4.09985 11.6961L29.7822 3.12177C30.0705 3.00247 30.3872 2.96993 30.6937 3.02812C31.0001 3.08631 31.283 3.23271 31.5077 3.44943C31.7325 3.66615 31.8894 3.9438 31.9592 4.24843C32.0291 4.55307 32.0089 4.8715 31.901 5.16481L23.3456 30.9039C23.2339 31.2369 23.0165 31.524 22.7267 31.7216C22.4369 31.9191 22.0905 32.0161 21.7404 31.9978ZM10.8254 12.8544L19.1561 14.5596C19.4676 14.6198 19.7542 14.7711 19.9799 14.9944C20.2056 15.2177 20.3602 15.5031 20.4242 15.8144L22.1096 24.1635L27.7598 7.19176L10.8254 12.8544Z" fill="white"/>
</svg>
