<svg width="36" height="35" viewBox="0 0 36 35" fill="none" xmlns="http://www.w3.org/2000/svg">
<path d="M5.67052 4.67052C5.08112 5.25992 4.75 6.05932 4.75 6.89286V12.6786C4.75 13.5121 5.08112 14.3115 5.67052 14.9009C6.25992 15.4903 7.05932 15.8214 7.89286 15.8214H13.6786C14.5121 15.8214 15.3115 15.4903 15.9009 14.9009C16.4903 14.3115 16.8214 13.5121 16.8214 12.6786V6.89286C16.8214 6.05932 16.4903 5.25992 15.9009 4.67052C15.3115 4.08112 14.5121 3.75 13.6786 3.75H7.89286C7.05932 3.75 6.25992 4.08112 5.67052 4.67052ZM7.38778 6.38778C7.52174 6.25383 7.70342 6.17857 7.89286 6.17857H13.6786C13.868 6.17857 14.0497 6.25383 14.1836 6.38778C14.3176 6.52174 14.3929 6.70342 14.3929 6.89286V12.6786C14.3929 12.868 14.3176 13.0497 14.1836 13.1836C14.0497 13.3176 13.868 13.3929 13.6786 13.3929H7.89286C7.70342 13.3929 7.52174 13.3176 7.38778 13.1836C7.25383 13.0497 7.17857 12.868 7.17857 12.6786V6.89286C7.17857 6.70342 7.25383 6.52174 7.38778 6.38778ZM21.0991 4.67052C20.5097 5.25992 20.1786 6.05932 20.1786 6.89286V12.6786C20.1786 13.5121 20.5097 14.3115 21.0991 14.9009C21.6885 15.4903 22.4879 15.8214 23.3214 15.8214H29.1071C29.9407 15.8214 30.7401 15.4903 31.3295 14.9009C31.9189 14.3115 32.25 13.5121 32.25 12.6786V6.89286C32.25 6.05932 31.9189 5.25992 31.3295 4.67052C30.7401 4.08112 29.9407 3.75 29.1071 3.75H23.3214C22.4879 3.75 21.6885 4.08112 21.0991 4.67052ZM22.8164 6.38778C22.9503 6.25383 23.132 6.17857 23.3214 6.17857H29.1071C29.2966 6.17857 29.4783 6.25383 29.6122 6.38778C29.7462 6.52173 29.8214 6.70342 29.8214 6.89286V12.6786C29.8214 12.868 29.7462 13.0497 29.6122 13.1836C29.4783 13.3176 29.2966 13.3929 29.1071 13.3929H23.3214C23.132 13.3929 22.9503 13.3176 22.8164 13.1836C22.6824 13.0497 22.6071 12.868 22.6071 12.6786V6.89286C22.6071 6.70342 22.6824 6.52174 22.8164 6.38778ZM5.67052 20.0991C5.08112 20.6885 4.75 21.4879 4.75 22.3214V28.1071C4.75 28.9407 5.08112 29.7401 5.67052 30.3295C6.25992 30.9189 7.05932 31.25 7.89286 31.25H13.6786C14.5121 31.25 15.3115 30.9189 15.9009 30.3295C16.4903 29.7401 16.8214 28.9407 16.8214 28.1071V22.3214C16.8214 21.4879 16.4903 20.6885 15.9009 20.0991C15.3115 19.5097 14.5121 19.1786 13.6786 19.1786H7.89286C7.05932 19.1786 6.25992 19.5097 5.67052 20.0991ZM7.38778 21.8164C7.52174 21.6824 7.70342 21.6071 7.89286 21.6071H13.6786C13.868 21.6071 14.0497 21.6824 14.1836 21.8164C14.3176 21.9503 14.3929 22.132 14.3929 22.3214V28.1071C14.3929 28.2966 14.3176 28.4783 14.1836 28.6122C14.0497 28.7462 13.868 28.8214 13.6786 28.8214H7.89286C7.70342 28.8214 7.52173 28.7462 7.38778 28.6122C7.25383 28.4783 7.17857 28.2966 7.17857 28.1071V22.3214C7.17857 22.132 7.25383 21.9503 7.38778 21.8164ZM21.0991 20.0991C20.5097 20.6885 20.1786 21.4879 20.1786 22.3214V28.1071C20.1786 28.9407 20.5097 29.7401 21.0991 30.3295C21.6885 30.9189 22.4879 31.25 23.3214 31.25H29.1071C29.9407 31.25 30.7401 30.9189 31.3295 30.3295C31.9189 29.7401 32.25 28.9407 32.25 28.1071V22.3214C32.25 21.4879 31.9189 20.6885 31.3295 20.0991C30.7401 19.5097 29.9407 19.1786 29.1071 19.1786H23.3214C22.4879 19.1786 21.6885 19.5097 21.0991 20.0991ZM22.8164 21.8164C22.9503 21.6824 23.132 21.6071 23.3214 21.6071H29.1071C29.2966 21.6071 29.4783 21.6824 29.6122 21.8164C29.7462 21.9503 29.8214 22.132 29.8214 22.3214V28.1071C29.8214 28.2966 29.7462 28.4783 29.6122 28.6122C29.4783 28.7462 29.2966 28.8214 29.1071 28.8214H23.3214C23.132 28.8214 22.9503 28.7462 22.8164 28.6122C22.6824 28.4783 22.6071 28.2966 22.6071 28.1071V22.3214C22.6071 22.132 22.6824 21.9503 22.8164 21.8164Z" fill="white" stroke="white" stroke-width="0.5"/>
</svg>
