<svg width="36" height="35" viewBox="0 0 36 35" fill="none" xmlns="http://www.w3.org/2000/svg">
<path d="M28.8885 11.9904L21.058 3.35384C20.9234 3.20473 20.7591 3.08543 20.5757 3.00362C20.3922 2.92181 20.1937 2.8793 19.9928 2.87883H9.91686C9.43861 2.87313 8.96392 2.96168 8.5199 3.13945C8.07588 3.31721 7.67122 3.5807 7.32904 3.91486C6.98685 4.24902 6.71384 4.64732 6.5256 5.087C6.33736 5.52668 6.23757 5.99914 6.23193 6.47739V28.0687C6.23757 28.547 6.33736 29.0194 6.5256 29.4591C6.71384 29.8988 6.98685 30.2971 7.32904 30.6313C7.67122 30.9654 8.07588 31.2289 8.5199 31.4067C8.96392 31.5844 9.43861 31.673 9.91686 31.6673H25.5778C26.056 31.673 26.5307 31.5844 26.9747 31.4067C27.4188 31.2289 27.8234 30.9654 28.1656 30.6313C28.5078 30.2971 28.7808 29.8988 28.969 29.4591C29.1573 29.0194 29.2571 28.547 29.2627 28.0687V12.9548C29.2618 12.5981 29.1284 12.2544 28.8885 11.9904ZM25.8801 12.9548H20.2087C19.912 12.9256 19.6386 12.781 19.4474 12.5521C19.2563 12.3233 19.1627 12.0285 19.1867 11.7313V5.75768H19.3451L25.8801 12.9548ZM25.5778 28.7884H9.91686C9.81664 28.7943 9.71625 28.7803 9.62145 28.7472C9.52665 28.7142 9.43931 28.6628 9.36442 28.5959C9.28954 28.5291 9.22859 28.4481 9.18506 28.3576C9.14154 28.2671 9.11629 28.169 9.11078 28.0687V6.47739C9.11629 6.37715 9.14154 6.27898 9.18506 6.18852C9.22859 6.09805 9.28954 6.01707 9.36442 5.95021C9.43931 5.88335 9.52665 5.83192 9.62145 5.79888C9.71625 5.76585 9.81664 5.75184 9.91686 5.75768H16.3079V11.7313C16.2847 12.7916 16.6818 13.8181 17.4126 14.5866C18.1434 15.3552 19.1486 15.8035 20.2087 15.8336H26.3839V28.0687C26.3783 28.169 26.3531 28.2671 26.3096 28.3576C26.2661 28.4481 26.2051 28.5291 26.1302 28.5959C26.0553 28.6628 25.968 28.7142 25.8732 28.7472C25.7784 28.7803 25.678 28.7943 25.5778 28.7884Z" fill="white"/>
</svg>
